<?xml version="1.0" encoding="UTF-8" standalone="no"?>
<svg
   width="782.755"
   height="657.49066"
   viewBox="0 0 782.755 657.49066"
   version="1.1"
   id="svg4"
   xmlns="http://www.w3.org/2000/svg"
   xmlns:svg="http://www.w3.org/2000/svg">
  <defs
     id="defs4" />
  <g
     id="g1"
     transform="translate(-128.34306,-152.03196)">
    <path
       d="m 632.5,242.584 c -9.123,3.253 -22.101,16.404 -28.799,29.182 -4.352,8.302 -12.227,28.066 -17.028,42.734 -5.653,17.274 -9.858,33.124 -19.632,74 -15.213,63.623 -25.109,97.733 -35.539,122.5 -5.186,12.314 -14.316,29.591 -20.611,39.001 -23.307,34.845 -59.472,54.2 -114.003,61.011 l -9.612,1.2 -0.19,7.905 c -0.16,6.629 0.084,8.011 1.509,8.558 0.935,0.359 8.756,-0.113 17.38,-1.049 70.045,-7.6 108.61,-32.768 136.899,-89.343 15.294,-30.587 23.582,-56.36 43.025,-133.783 20.043,-79.815 31.622,-114.899 42.995,-130.283 7.853,-10.622 16.99,-10.976 25.589,-0.993 11.75,13.642 24.829,55.581 43.583,139.756 14.34,64.362 22.968,93.013 36.294,120.52 20.868,43.075 43.861,65.263 84.33,81.374 5.395,2.148 12.118,4.589 14.938,5.426 l 5.129,1.52 0.154,-9.66 0.153,-9.66 -8.748,-3.493 c -36.737,-14.669 -62.14,-40.486 -79.423,-80.718 -10.612,-24.704 -18.359,-51.898 -30.354,-106.559 -10.857,-49.477 -22.711,-95.061 -29.84,-114.753 -11.998,-33.136 -32.225,-56.16 -49.109,-55.898 -2.799,0.043 -6.89,0.721 -9.09,1.505 M 562.328,314.5 c 0.005,3.85 0.185,5.302 0.402,3.228 0.216,-2.075 0.213,-5.225 -0.008,-7 -0.221,-1.776 -0.398,-0.078 -0.394,3.772 M 370.25,730.757 c -10.576,3.355 -11.25,3.726 -11.25,6.199 0,2.265 0.614,2.793 4.425,3.813 2.885,0.771 4.645,1.875 5.056,3.172 1.154,3.635 0.828,52.982 -0.36,54.413 -0.603,0.727 -2.908,1.865 -5.122,2.528 -3.61,1.082 -4.001,1.51 -3.799,4.162 l 0.225,2.956 h 19.075 19.075 l 0.218,-2.871 c 0.199,-2.607 -0.133,-2.928 -3.595,-3.481 -2.098,-0.336 -4.785,-1.644 -5.972,-2.907 -2.062,-2.196 -2.162,-3.232 -2.265,-23.535 l -0.108,-21.238 3.663,-4.99 c 4.445,-6.055 7.037,-7.978 10.753,-7.978 2.09,0 3.267,0.778 4.528,2.994 1.815,3.19 3.988,3.723 7.519,1.843 6.151,-3.277 6.308,-11.212 0.317,-16.065 -2.317,-1.877 -9.009,-2.341 -12.818,-0.89 -3.055,1.165 -7.294,5.463 -11.445,11.605 l -3.37,4.986 -0.011,-5.486 c -0.015,-7.509 -1.025,-13.006 -2.37,-12.893 -0.615,0.051 -6.181,1.699 -12.369,3.663 m -214.406,-1.363 c -9.726,3.474 -18.554,11.244 -22.844,20.105 -1.151,2.379 -2.811,7.846 -3.689,12.15 -2.678,13.135 0.228,25.566 8.381,35.851 12.238,15.439 37.894,16.062 53.898,1.31 4.866,-4.485 5.161,-5.323 2.796,-7.936 -1.539,-1.701 -1.785,-1.648 -5.25,1.131 -4.924,3.949 -11.191,5.995 -18.361,5.995 -7.449,0 -11.676,-1.945 -16.747,-7.706 -4.333,-4.923 -6.647,-10.837 -7.644,-19.544 L 145.725,765 H 170.862 196 v -6.318 c 0,-13.074 -5.344,-23.067 -14.936,-27.932 -4.62,-2.343 -6.618,-2.743 -13.493,-2.706 -4.439,0.024 -9.716,0.631 -11.727,1.35 m 149.488,0.457 c -19.523,6.747 -30.607,30.313 -24.78,52.689 1.86,7.144 4.928,12.603 10.028,17.846 9.259,9.517 27.718,12.005 41.082,5.536 6.377,-3.088 14.864,-11.109 14.036,-13.267 -1.039,-2.707 -3.6,-3.09 -5.999,-0.898 -4.337,3.963 -9.016,5.586 -17.199,5.966 -6.944,0.322 -8.522,0.067 -11.953,-1.932 -7.69,-4.479 -12.412,-13.301 -13.939,-26.041 l -0.57,-4.75 h 25.624 25.624 l -0.555,-8.101 c -0.966,-14.08 -7.155,-23.668 -17.675,-27.379 -5.807,-2.049 -17.3,-1.889 -23.724,0.331 m -109.141,2.077 c 0.187,2.447 0.759,3.028 3.487,3.539 1.796,0.337 3.913,1.539 4.707,2.672 0.793,1.132 7.668,17.537 15.278,36.456 l 13.837,34.397 4.586,0.004 4.586,0.004 13.378,-34.591 c 10.729,-27.742 13.945,-35.068 16.241,-37 1.574,-1.325 3.632,-2.409 4.573,-2.409 1.183,0 1.781,-0.925 1.939,-3 l 0.229,-3 h -14.303 -14.304 l -0.222,2.918 c -0.191,2.504 0.205,3.013 2.786,3.58 1.655,0.363 3.646,1.571 4.426,2.683 1.226,1.751 1.213,2.716 -0.098,7.171 -1.89,6.421 -14.445,40.894 -15.244,41.856 -0.884,1.063 -18.243,-46.004 -17.884,-48.49 0.209,-1.448 1.374,-2.455 3.561,-3.079 2.691,-0.769 3.25,-1.419 3.25,-3.784 V 729 h -17.516 -17.516 l 0.223,2.928 m -38.691,4.933 c -1.65,1.019 -3.77,2.721 -4.712,3.782 -2.13,2.401 -5.345,9.788 -6.14,14.107 L 146.05,758 H 163.025 180 v -5.134 c 0,-7.146 -1.842,-12.555 -5.253,-15.425 -3.723,-3.133 -12.629,-3.433 -17.247,-0.58 m 150.649,-0.165 c -3.993,1.968 -7.75,7.328 -9.718,13.866 C 296.05,758.475 295.055,758 314,758 h 17 v -4.318 c 0,-7.424 -2.671,-14.51 -6.303,-16.725 -3.981,-2.428 -11.896,-2.552 -16.548,-0.261"
       stroke="none"
       fill="#b78832"
       fill-rule="evenodd"
       id="path1" />
    <path
       d="m 160.5,174.143 c -9.9,12.143 -18.15,22.479 -18.333,22.968 -0.185,0.493 6.156,0.889 14.25,0.889 H 171 v 240.5 l -0.69636,213.48652 8.25,0.002 8.25,10e-4 0.0884,0.0105 h 342.02 342.02 l 0.284,10.329 0.284,10.33 19.799,-14.706 19.799,-14.706 -15.799,-12.097 c -8.69,-6.654 -17.712,-13.499 -20.049,-15.211 L 871,612.827 v 10.6 10.6 L 582.75,633.763 294.5,633.5 288,631.267 c -11.839,-4.068 -21.321,-13.578 -26.088,-26.163 -4.78439,-12.63142 -7.36799,-32.26798 -7.50998,-56.21803 -0.0414,-6.98623 0.12491,-14.33949 0.50498,-21.99297 1.618,-32.572 5.972,-84.315 9.147,-108.716 7.886,-60.602 26.776,-113.654 46.718,-131.207 8.912,-7.845 23.026,-10.254 38.547,-6.581 9.167,2.17 10.681,3.094 10.681,6.521 0,6.692 -1.15,9.093 -5.603,11.703 -2.386,1.399 -6.57,4.984 -9.296,7.967 -9.682,10.594 -13.672,23.614 -13.152,42.92 l 0.135,5 7.066,-7.46 c 3.887,-4.102 9.104,-10.965 11.593,-15.25 4.479,-7.708 6.766,-9.895 5.792,-5.54 -0.277,1.238 -0.96,11.025 -1.52,21.75 -0.849,16.3 -1.286,19.664 -2.66,20.5 -15.833,9.631 -24.211,27.467 -24.32,51.773 l -0.035,7.773 2.663,-1.745 c 1.465,-0.96 5.683,-5.291 9.374,-9.625 6.226,-7.311 8.896,-11.545 12.095,-19.176 1.096,-2.616 1.359,-0.446 2.054,16.974 l 0.797,19.975 -4.337,4.525 c -5.989,6.249 -8.256,9.789 -11.338,17.707 -2.299,5.903 -2.666,8.363 -2.732,18.319 -0.073,11.108 2.603,28 4.437,28 1.051,0 11.448,-21.534 13.519,-28 3.171,-9.9 3.137,-9.879 3.901,-2.5 0.398,3.85 1.784,14.381 3.08,23.403 l 2.356,16.402 -2.296,3.098 c -3.323,4.481 -4.575,9.008 -4.561,16.496 0.02,11.01 3.414,21.01 10.169,29.957 l 4.112,5.446 1.803,-3.401 c 3.37,-6.353 5.193,-17.31 4.703,-28.266 -0.388,-8.677 -0.894,-11.07 -3.522,-16.635 -2.622,-5.552 -5.664,-15.947 -4.893,-16.718 0.134,-0.133 2.991,2.826 6.35,6.578 3.359,3.751 8.467,8.797 11.353,11.213 l 5.246,4.392 -0.636,-7.483 c -1.002,-11.804 -6.601,-26.77 -12.852,-34.354 -1.597,-1.938 -5.1,-4.946 -7.784,-6.685 -3.68,-2.385 -5.019,-3.934 -5.448,-6.303 -0.793,-4.384 -3.721,-45.866 -3.269,-46.318 0.204,-0.203 1.304,1.879 2.446,4.627 1.142,2.748 3.406,6.922 5.032,9.274 3.731,5.401 15.056,17.777 16.267,17.777 1.253,0 1.147,-13.331 -0.165,-20.566 -2.223,-12.267 -10.723,-25.46 -21.22,-32.941 l -2.797,-1.993 0.297,-17 0.296,-17 1.896,3.5 c 3.897,7.196 17.816,24 19.878,24 1.445,0 0.221,-17.057 -1.753,-24.427 -2.463,-9.193 -6.912,-17.579 -12.717,-23.966 l -5.306,-5.839 0.682,-11.556 c 0.845,-14.329 3.818,-37.212 4.835,-37.212 0.416,0 3.503,2.937 6.861,6.527 4.178,4.466 7.525,9.445 10.602,15.77 5.713,11.743 6.504,16.757 3.542,22.44 -3.678,7.057 -4.671,15.79 -2.702,23.769 2.136,8.654 7.343,17.962 14.125,25.249 l 5.329,5.724 2.054,-6.651 c 6.179,-20.005 4.495,-39.612 -4.359,-50.749 -1.933,-2.431 -3.775,-5.581 -4.093,-7 -8.812,-39.276 -29.716,-57.457 -68.874,-59.903 l -11,-0.687 13,-13.101 c 12.576,-12.674 19.356,-18.024 31.638,-24.966 l 5.84,-3.301 7.254,2.01 c 8.331,2.309 17.136,6.743 22.34,11.251 l 3.6,3.118 -2.585,5 c -3.636,7.034 -4.95,15.17 -3.724,23.049 1.168,7.501 6.679,18.646 11.56,23.377 l 3.339,3.236 2.132,-6.313 c 3.096,-9.168 4.568,-22.004 3.394,-29.599 -0.531,-3.437 -0.701,-6.246 -0.377,-6.242 1.462,0.02 11.738,17.022 15.621,25.848 l 4.297,9.763 -2.937,6.12 c -7.39,15.396 -9.323,36.019 -4.891,52.179 l 2.309,8.418 1.959,-2.418 c 2.927,-3.613 9.288,-16.688 11.12,-22.857 0.886,-2.983 1.611,-7.682 1.611,-10.443 0,-3.099 0.355,-4.655 0.927,-4.068 1.135,1.163 4.375,17.81 6.581,33.813 l 1.635,11.863 -4.627,4.626 c -10.648,10.649 -15.674,29.933 -12.435,47.714 0.594,3.264 1.445,6.312 1.89,6.774 1.899,1.972 12.147,-16.614 15.626,-28.34 1.224,-4.125 2.47,-6.825 2.769,-6 1.015,2.8 2.634,27.053 2.634,39.462 0,11.197 -0.233,12.807 -2.488,17.196 -4.409,8.581 -4.936,21.178 -1.456,34.842 1.733,6.804 7.213,19.696 8.444,19.864 0.55,0.075 2.475,-2.653 4.277,-6.061 8.867,-16.765 9.693,-41.649 1.698,-51.15 -2.151,-2.557 -2.486,-3.969 -2.562,-10.797 -0.048,-4.321 -0.388,-11.793 -0.756,-16.606 -0.367,-4.813 -0.441,-8.737 -0.163,-8.72 0.279,0.016 2.001,2.642 3.828,5.834 3.61,6.308 16.627,22.136 18.204,22.136 1.589,0 1.142,-18.559 -0.61,-25.356 -0.871,-3.379 -3.009,-8.827 -4.75,-12.105 -3.393,-6.388 -12.205,-16.563 -16.588,-19.152 -2.523,-1.491 -2.84,-2.563 -5.528,-18.734 -1.568,-9.434 -3.034,-17.828 -3.257,-18.653 -0.223,-0.825 0.627,-0.15 1.889,1.5 1.263,1.65 6.801,7.5 12.307,13 l 10.011,10 0.298,-6.869 c 0.733,-16.867 -11.75,-39.094 -25.575,-45.538 -4.935,-2.301 -5.261,-2.7 -7.333,-9 -10.832,-32.923 -22.448,-53.77 -33.185,-59.553 -1.907,-1.026 -4.188,-3.088 -5.07,-4.581 -2.889,-4.891 -13.416,-13.711 -20.733,-17.371 l -7.174,-3.59 6.559,-2.974 c 13.454,-6.1 32.893,-10.008 49.838,-10.018 15.119,-0.009 15.137,-0.001 19.725,8.859 2.174,4.199 4.506,9.507 5.183,11.796 1.125,3.805 1.037,4.432 -1.035,7.342 -2.83,3.974 -5.666,12.945 -6.543,20.692 -0.661,5.841 1.125,21.334 3.833,33.262 l 1.24,5.457 6.796,-8.457 C 482.655,268.102 488,255.375 488,243.632 c 0,-7.103 -2.801,-14.669 -6.978,-18.845 -4.026,-4.026 -10.874,-18.797 -8.703,-18.775 2.448,0.026 16.452,6.74 23.303,11.174 7.988,5.169 20.974,16.965 21.905,19.898 0.339,1.069 -0.532,4.772 -1.968,8.361 -1.417,3.543 -3.344,10.936 -4.282,16.43 -1.438,8.428 -1.522,11.235 -0.542,17.961 1.047,7.185 7.148,25.43 9.191,27.485 1.038,1.045 8.714,-20.478 10.318,-28.93 0.667,-3.515 1.502,-6.391 1.855,-6.391 1.247,0 3.401,19.637 3.401,31 0,11.448 -0.015,11.518 -3.21,15.5 -8.652,10.779 -9.378,27.65 -2.165,50.282 1.704,5.345 3.277,9.91 3.497,10.145 0.783,0.839 3.576,-3.566 7.879,-12.427 7.043,-14.505 8.245,-28.253 3.551,-40.604 -1.475,-3.881 -2.051,-7.749 -2.051,-13.775 l -10e-4,-8.378 6.639,10.878 c 3.652,5.984 7.574,12.431 8.716,14.328 l 2.077,3.448 0.85,-3.948 c 0.467,-2.172 0.685,-9.574 0.485,-16.449 -0.302,-10.355 -0.814,-13.754 -2.985,-19.806 -3.608,-10.058 -9.662,-19.888 -16.865,-27.381 -3.53,-3.672 -6.876,-8.321 -7.998,-11.112 -1.061,-2.64 -2.853,-6.69 -3.982,-9 l -2.052,-4.201 4.551,5.138 c 2.503,2.826 8.941,8.552 14.307,12.725 5.367,4.174 11.445,8.993 13.507,10.71 2.063,1.716 3.75,2.888 3.75,2.603 0,-2.12 -7.636,-17.864 -11.438,-23.583 C 545.473,237.429 533.081,228 526.156,228 c -1.714,0 -5.048,-2.503 -11.083,-8.32 -14.528,-14.006 -27.776,-21.904 -45.789,-27.3 -7.593,-2.275 -11.157,-2.697 -26.284,-3.116 -21.053,-0.583 -35.48,1.463 -54.008,7.658 -39.593,13.238 -75.433,43.223 -103.824,86.862 -28.324,43.539 -44.119,107.638 -53.156,215.716 -5.327,63.703 -15.023,101.396 -30.423,118.266 C 196.61,623.22 189.541,629 187.85,629 187.382,629 187,532.025 187,413.5 V 198 h 14.5 c 7.975,0 14.5,-0.245 14.5,-0.543 0,-0.299 -3.514,-4.687 -7.808,-9.75 -4.295,-5.064 -12.677,-15.17 -18.627,-22.457 -5.95,-7.287 -10.874,-13.236 -10.942,-13.218 -0.068,0.018 -8.223,9.967 -18.123,22.111 m 468,515.881 c -3.3,1.011 -8.587,2.576 -11.75,3.478 -4.837,1.379 -5.75,2.002 -5.75,3.917 0,1.728 0.964,2.656 3.993,3.846 2.597,1.02 4.345,2.495 5,4.217 1.282,3.371 1.365,88.446 0.09,91.8 -0.654,1.719 -2.234,2.78 -5.5,3.695 -3.954,1.107 -4.582,1.643 -4.578,3.903 l 0.005,2.62 18.995,0.158 18.995,0.158 v -2.797 c 0,-2.379 -0.499,-2.89 -3.34,-3.423 -1.837,-0.345 -4.425,-1.781 -5.75,-3.193 l -2.41,-2.566 v -53.919 c 0,-35.341 -0.345,-53.886 -1,-53.824 -0.55,0.051 -3.7,0.92 -7,1.93 m 46,-0.072 c -3.3,0.989 -8.577,2.558 -11.727,3.487 -4.861,1.434 -5.692,2.02 -5.5,3.875 0.149,1.431 1.601,2.876 4.207,4.186 3.3,1.659 4.119,2.682 4.797,6 0.449,2.2 0.684,23.278 0.52,46.839 l -0.297,42.839 -2.321,1.879 c -1.277,1.034 -3.889,2.173 -5.805,2.533 -2.958,0.555 -3.437,1.017 -3.179,3.064 l 0.305,2.41 19.25,0.433 19.25,0.432 v -2.853 c 0,-2.443 -0.48,-2.943 -3.34,-3.48 -1.837,-0.345 -4.425,-1.781 -5.75,-3.193 l -2.41,-2.566 v -53.919 c 0,-35.33 -0.345,-53.892 -1,-53.842 -0.55,0.042 -3.7,0.886 -7,1.876 m -96.143,4.04 c -5.658,2.283 -7.376,12.08 -2.902,16.553 5.283,5.284 14.987,1.954 16.16,-5.545 0.797,-5.099 -1.008,-8.848 -5.077,-10.548 -3.905,-1.632 -5.11,-1.7 -8.181,-0.46 M 577,730.854 c -11.58,3.378 -12.499,3.825 -12.49,6.077 0.007,1.823 0.721,2.621 2.857,3.192 1.566,0.419 3.7,1.532 4.74,2.474 1.768,1.599 1.893,3.491 1.893,28.535 0,26.726 -0.008,26.827 -2.25,28.247 -1.237,0.783 -3.712,1.73 -5.5,2.102 -2.585,0.539 -3.25,1.173 -3.25,3.098 0,2.375 0.168,2.422 8.75,2.45 4.813,0.017 13.362,0.087 18.999,0.156 5.636,0.07 10.249,-0.168 10.25,-0.529 0,-0.361 10e-4,-1.457 10e-4,-2.437 0,-1.195 -1.39,-2.264 -4.226,-3.25 -6.86,-2.385 -6.831,-2.207 -6.536,-40.22 0.144,-18.563 0.037,-33.703 -0.238,-33.645 -0.275,0.057 -6.125,1.745 -13,3.75 m -83,-2.054 -4.5,0.3 -2.273,7.2 c -6.792,21.518 -17.606,51.715 -18.267,51.011 -1.881,-2.002 -17.072,-45.487 -16.779,-48.033 0.247,-2.153 1.05,-2.993 3.569,-3.735 2.568,-0.756 3.248,-1.49 3.241,-3.5 l -0.009,-2.543 -17.375,-0.247 -17.375,-0.248 -0.492,2.576 c -0.505,2.639 -0.322,2.795 4.541,3.862 1.591,0.349 3.553,1.88 4.584,3.575 0.991,1.63 7.556,17.706 14.589,35.723 7.033,18.017 13.096,33.1 13.474,33.516 0.378,0.417 2.731,0.477 5.229,0.135 l 4.542,-0.623 8.307,-23.634 c 4.569,-12.999 9.039,-25.401 9.933,-27.559 l 1.626,-3.924 11.334,26.924 c 6.234,14.808 11.62,27.225 11.968,27.592 0.348,0.367 2.363,0.81 4.476,0.983 l 3.844,0.315 12.367,-32.849 c 6.802,-18.067 13.093,-33.956 13.98,-35.31 0.887,-1.354 3.155,-3.371 5.04,-4.483 2.212,-1.305 3.427,-2.784 3.428,-4.173 0.001,-2.113 -0.243,-2.146 -14,-1.848 -2.71068,0.0586 -4.89661,0.10631 -6.65937,0.16233 C 529.04994,730.19706 529,730.57079 529,732.444 c 0,1.717 0.73,2.523 2.744,3.028 3.938,0.988 5.256,2.387 5.256,5.577 0,2.601 -12.719,40.839 -14.852,44.651 -1.179,2.107 -1.099,2.29 -13.832,-31.7 -5.254,-14.025 -9.612,-25.5 -9.684,-25.5 -0.073,0 -2.157,0.135 -4.632,0.3 m 234.283,1.422 c -15.739,5.767 -25.306,18.415 -26.899,35.561 -1.616,17.385 7.097,33.899 21.357,40.475 4.049,1.868 6.548,2.198 16.759,2.218 10.393,0.021 12.659,-0.28 16.92,-2.245 10.53,-4.856 17.797,-13.028 21.62,-24.314 1.842,-5.436 2.109,-8.031 1.75,-16.977 -0.369,-9.185 -0.821,-11.399 -3.47,-17 -3.74,-7.906 -9.079,-13.399 -16.32,-16.79 -8.001,-3.748 -22.839,-4.182 -31.717,-0.928 M 782,731.881 c 0,2.371 0.508,2.971 2.923,3.454 1.608,0.321 3.746,1.483 4.75,2.581 1.005,1.097 7.677,17.325 14.827,36.06 l 13,34.064 4.904,-0.27 c 4.61,-0.254 4.979,-0.48 6.157,-3.77 0.689,-1.925 5.074,-14.283 9.744,-27.461 l 8.492,-23.961 1.443,3.461 c 0.794,1.903 5.622,14.599 10.73,28.211 l 9.287,24.75 h 4.141 4.141 l 10.878,-29.75 c 5.983,-16.362 11.772,-31.898 12.864,-34.523 2.009,-4.831 6.688,-9.727 9.296,-9.727 0.886,0 1.423,-1.038 1.423,-2.75 v -2.75 h -14 -14 v 2.731 c 0,2.153 0.582,2.87 2.75,3.388 3.997,0.955 5.25,2.264 5.25,5.483 0,2.307 -8.791,28.912 -14.009,42.398 -1.133,2.93 -1.251,2.742 -5.004,-8 -2.114,-6.05 -6.639,-18.987 -10.056,-28.75 L 855.717,729 h -4.775 -4.776 l -4.723,14.25 c -9.061,27.338 -14.668,42.75 -15.552,42.75 -0.49,0 -0.891,-0.503 -0.891,-1.118 0,-0.614 -3.375,-10.34 -7.5,-21.611 -4.125,-11.272 -7.5,-21.778 -7.5,-23.347 0,-3.036 2.276,-4.924 5.934,-4.924 1.589,0 2.064,-0.635 2.057,-2.75 L 817.982,729.5 799.991,729.256 782,729.013 v 2.868 m -49.5,4.536 c -13.816,6.167 -18.427,34.239 -8.725,53.111 6.759,13.148 22.324,16.539 31.421,6.845 11.427,-12.176 9.791,-44.614 -2.853,-56.559 -5.111,-4.83 -13.439,-6.255 -19.843,-3.397"
       stroke="none"
       fill="#355733"
       fill-rule="evenodd"
       id="path3" />
    <path
       d="m 386.369,611.5 0.044,6.09894 0.021,2.90106"
       stroke="none"
       fill="#fbfbfb"
       fill-rule="evenodd"
       id="path4" />
  </g>
</svg>
